<svg xmlns:dc="http://purl.org/dc/elements/1.1/" xmlns:cc="http://creativecommons.org/ns#" xmlns:rdf="http://www.w3.org/1999/02/22-rdf-syntax-ns#" xmlns:svg="http://www.w3.org/2000/svg" xmlns="http://www.w3.org/2000/svg" xmlns:xlink="http://www.w3.org/1999/xlink" id="svg13093" viewBox="0 0 1024 768" height="768px" width="1024px" version="1.1">
  <metadata id="metadata13099">
    <rdf:rdf>
      <cc:work rdf:about="">
        <dc:format>image/svg+xml</dc:format>
        <dc:type rdf:resource="http://purl.org/dc/dcmitype/StillImage"></dc:type>
      </cc:work>
    </rdf:rdf>
  </metadata>
  <defs id="defs13097"></defs>
  <linearGradient spreadMethod="pad" y2="30%" x2="-10%" y1="120%" x1="30%" id="3d_gradient2-logo-65c66efa-9fef-4677-8909-d5fe690499ec">
    <stop id="stop13074" stop-opacity="1" stop-color="#ffffff" offset="0%"></stop>
    <stop id="stop13076" stop-opacity="1" stop-color="#000000" offset="100%"></stop>
  </linearGradient>
  <linearGradient gradientTransform="rotate(-30)" spreadMethod="pad" y2="30%" x2="-10%" y1="120%" x1="30%" id="3d_gradient3-logo-65c66efa-9fef-4677-8909-d5fe690499ec">
    <stop id="stop13079" stop-opacity="1" stop-color="#ffffff" offset="0%"></stop>
    <stop id="stop13081" stop-opacity="1" stop-color="#cccccc" offset="50%"></stop>
    <stop id="stop13083" stop-opacity="1" stop-color="#000000" offset="100%"></stop>
  </linearGradient>
  <g id="logo-group">
    <image xlink:href="" id="container" x="272" y="144" width="480" height="480" style="display: none;" transform="translate(0 0)"></image>
    <g id="logo-center" transform="translate(0 0)">
      <image xlink:href="" id="icon_container" style="display: none;" x="0" y="0"></image>
      <g id="slogan" style="font-style:normal;font-weight:200;font-size:32px;line-height:1;font-family:'Work Sans';font-variant-ligatures:none;text-align:center;text-anchor:middle" transform="translate(0 0)">
        <path id="path13101" style="font-style:normal;font-weight:200;font-size:32px;line-height:1;font-family:'Work Sans';font-variant-ligatures:none;text-align:center;text-anchor:middle" d="m 478.6655,-0.448 1.024,-0.864 q 4.384,-3.616 6.624,-5.696 2.24,-2.08 3.584,-4.128 1.376,-2.048 1.376,-4.064 0,-2.72 -1.632,-4.256 -1.6,-1.536 -4.384,-1.536 -2.816,0 -4.512,1.728 -1.696,1.696 -1.824,4.608 l -0.48,-0.192 q 0.16,-3.008 1.952,-4.8 1.824,-1.792 4.864,-1.792 3.04,0 4.768,1.664 1.728,1.664 1.728,4.576 0,2.144 -1.312,4.192 -1.28,2.016 -3.456,4.064 -2.176,2.048 -6.624,5.76 l -0.832,0.704 v 0.032 h 0.896 12.256 V 0 h -14.016 z" stroke-width="0" stroke-linejoin="miter" stroke-miterlimit="2" fill="#f6f6f6" stroke="#f6f6f6" transform="translate(0 365.156) translate(481.232 55.36) scale(0.75) translate(-478.4415 21.44)"></path>
        <path id="path13103" style="font-style:normal;font-weight:200;font-size:32px;line-height:1;font-family:'Work Sans';font-variant-ligatures:none;text-align:center;text-anchor:middle" d="m 503.44,0.32 q -3.616,0 -5.568,-2.816 -1.952,-2.816 -1.952,-8.064 0,-5.248 1.952,-8.064 1.952,-2.816 5.568,-2.816 3.616,0 5.568,2.816 1.952,2.816 1.952,8.064 0,5.248 -1.952,8.064 -1.952,2.816 -5.568,2.816 z m 0,-0.448 q 3.392,0 5.184,-2.688 1.824,-2.688 1.824,-7.744 0,-5.056 -1.824,-7.744 -1.792,-2.688 -5.184,-2.688 -3.392,0 -5.216,2.688 -1.792,2.688 -1.792,7.744 0,5.056 1.792,7.744 1.824,2.688 5.216,2.688 z" stroke-width="0" stroke-linejoin="miter" stroke-miterlimit="2" fill="#f6f6f6" stroke="#f6f6f6" transform="translate(0 365.156) translate(498.09087500000004 55.36) scale(0.75) translate(-495.92 21.44)"></path>
        <path id="path13105" style="font-style:normal;font-weight:200;font-size:32px;line-height:1;font-family:'Work Sans';font-variant-ligatures:none;text-align:center;text-anchor:middle" d="m 514.603,-0.448 1.024,-0.864 q 4.384,-3.616 6.624,-5.696 2.24,-2.08 3.584,-4.128 1.376,-2.048 1.376,-4.064 0,-2.72 -1.632,-4.256 -1.6,-1.536 -4.384,-1.536 -2.816,0 -4.512,1.728 -1.696,1.696 -1.824,4.608 l -0.48,-0.192 q 0.16,-3.008 1.952,-4.8 1.824,-1.792 4.864,-1.792 3.04,0 4.768,1.664 1.728,1.664 1.728,4.576 0,2.144 -1.312,4.192 -1.28,2.016 -3.456,4.064 -2.176,2.048 -6.624,5.76 l -0.832,0.704 v 0.032 h 0.896 12.256 V 0 h -14.016 z" stroke-width="0" stroke-linejoin="miter" stroke-miterlimit="2" fill="#f6f6f6" stroke="#f6f6f6" transform="translate(0 365.156) translate(515.685125 55.36) scale(0.75) translate(-514.379 21.44)"></path>
        <path id="path13107" style="font-style:normal;font-weight:200;font-size:32px;line-height:1;font-family:'Work Sans';font-variant-ligatures:none;text-align:center;text-anchor:middle" d="m 538.8975,-12.8 q 1.92,0 3.424,0.832 1.504,0.832 2.336,2.336 0.832,1.472 0.832,3.36 0,1.92 -0.864,3.424 -0.864,1.504 -2.4,2.336 -1.536,0.832 -3.488,0.832 -6.208,0 -7.2,-5.088 l 0.448,-0.192 q 0.384,2.464 2.144,3.648 1.76,1.184 4.608,1.184 1.824,0 3.232,-0.768 1.44,-0.8 2.208,-2.176 0.8,-1.408 0.8,-3.2 0,-1.76 -0.768,-3.136 -0.768,-1.408 -2.176,-2.176 -1.376,-0.768 -3.136,-0.768 -4.16,0 -6.208,2.72 h -0.448 l 0.96,-11.488 h 11.488 v 0.448 h -11.072 l -0.832,9.888 -0.064,0.608 h 0.032 q 1.888,-2.624 6.144,-2.624 z" stroke-width="0" stroke-linejoin="miter" stroke-miterlimit="2" fill="#f6f6f6" stroke="#f6f6f6" transform="translate(0 365.156) translate(532.3039999999999 55.599999999999994) scale(0.75) translate(-531.5375 21.12)"></path>
      </g>
      <g id="title" style="font-style:normal;font-weight:normal;font-size:72px;line-height:1;font-family:'Brandmark Sans 26';font-variant-ligatures:normal;text-align:center;text-anchor:middle" transform="translate(0 0)">
        <path id="path13110" style="font-style:normal;font-weight:normal;font-size:72px;line-height:1;font-family:'Brandmark Sans 26';font-variant-ligatures:normal;text-align:center;text-anchor:middle" d="m 260.216,-52.704 h -13.104 v -7.272 h -5.184 v 7.272 H 228.68 v 4.464 h 31.536 z m -8.28,15.984 c 1.368,-2.592 2.808,-6.624 4.176,-10.224 l -4.896,-1.152 c -0.648,3.096 -2.304,7.56 -3.6,10.44 z m -11.664,-1.008 c -0.36,-2.736 -1.584,-6.984 -3.096,-10.224 l -4.176,1.08 c 1.368,3.24 2.52,7.56 2.808,10.368 z m 18.216,28.872 c -1.656,-1.512 -8.64,-7.2 -11.376,-9.216 V -19.8 h 13.392 v -4.536 h -13.392 v -7.56 h 13.968 v -4.536 h -33.408 v 4.536 h 14.256 v 7.56 h -14.04 v 4.536 h 12.888 c -3.6,6.336 -9.288,12.816 -14.472,16.2 1.152,0.936 2.736,2.664 3.6,3.888 4.032,-3.168 8.496,-8.352 12.024,-13.896 V 5.328 h 5.184 V -12.96 c 3.024,2.736 6.696,6.264 8.208,8.064 z m 34.344,-27.288 H 268.784 V -48.96 c 7.992,-1.584 16.992,-3.744 23.112,-6.48 l -4.32,-3.96 c -4.608,2.304 -12.672,4.608 -20.016,6.192 l -3.888,-1.224 v 25.056 c 0,10.08 -1.008,22.536 -10.152,31.464 1.224,0.72 3.168,2.592 3.816,3.744 10.08,-10.008 11.448,-24.408 11.448,-35.136 v -1.8 h 10.728 V 5.04 h 5.256 v -36.144 h 8.064 z" stroke-width="0" stroke-linejoin="miter" stroke-miterlimit="2" fill="#f6f6f6" stroke="#f6f6f6" transform="translate(0 284.1844) translate(212.43500000000006 47.4332) scale(1.05) translate(-226.304 59.976)"></path>
        <path id="path13112" style="font-style:normal;font-weight:normal;font-size:72px;line-height:1;font-family:'Brandmark Sans 26';font-variant-ligatures:normal;text-align:center;text-anchor:middle" d="m 316.808,-16.128 v -14.256 h 16.128 v 14.256 z m 47.592,0 h -26.064 v -14.256 h 21.096 v -5.04 h -21.096 v -10.944 h 22.752 v -5.184 h -42.912 c 1.152,-2.448 2.304,-5.04 3.312,-7.56 l -5.4,-1.296 c -3.384,9.648 -9.432,18.936 -16.2,24.84 1.368,0.72 3.6,2.52 4.608,3.384 3.888,-3.744 7.704,-8.64 10.944,-14.184 h 17.496 v 10.944 H 311.48 v 19.296 h -11.808 v 5.184 h 33.264 V 5.544 h 5.4 V -10.944 H 364.4 Z" stroke-width="0" stroke-linejoin="miter" stroke-miterlimit="2" fill="#f3e9e2" stroke="#f3e9e2" transform="translate(0 284.1844) translate(289.4714000000001 46.9796) scale(1.05) translate(-299.672 60.408)"></path>
        <path id="path13114" style="font-style:normal;font-weight:normal;font-size:72px;line-height:1;font-family:'Brandmark Sans 26';font-variant-ligatures:normal;text-align:center;text-anchor:middle" d="m 374.48,-26.568 c 1.872,-5.256 3.168,-13.464 3.6,-19.296 l -4.104,-0.504 c -0.504,5.76 -1.8,13.608 -3.672,18.288 z m 5.976,32.04 h 5.256 v -65.736 h -5.256 z m 14.76,-41.112 c -0.864,-3.312 -3.312,-8.856 -5.544,-13.104 l -3.744,1.728 c 2.088,4.248 4.464,9.864 5.256,13.32 z m 19.872,-8.136 h 10.728 v 16.416 h -11.088 c 0.288,-3.096 0.36,-6.12 0.36,-9 z m 22.176,21.528 v -5.112 h -6.192 v -21.456 h -15.984 v -11.448 h -5.328 v 11.448 h -14.04 v 5.04 h 14.04 v 7.416 c 0,2.88 -0.072,5.904 -0.36,9 h -17.568 v 5.112 h 16.848 c -1.8,8.784 -6.552,17.64 -19.152,23.904 1.224,1.08 2.952,3.024 3.744,4.176 12.024,-6.624 17.568,-15.552 19.944,-24.552 4.104,11.232 10.8,20.088 20.808,24.48 0.864,-1.584 2.52,-3.816 3.816,-4.968 -10.008,-3.672 -16.92,-12.384 -20.736,-23.04 z" stroke-width="0" stroke-linejoin="miter" stroke-miterlimit="2" fill="#efddcf" stroke="#efddcf" transform="translate(0 284.1844) translate(363.63500000000005 47.130799999999994) scale(1.05) translate(-370.304 60.264)"></path>
        <path id="path13116" style="font-style:normal;font-weight:normal;font-size:72px;line-height:1;font-family:'Brandmark Sans 26';font-variant-ligatures:normal;text-align:center;text-anchor:middle" d="m 457.136,-20.088 c -3.456,6.336 -9.072,13.176 -14.04,17.64 1.152,0.792 3.384,2.52 4.32,3.456 4.968,-4.968 10.872,-12.528 14.904,-19.368 z m 49.248,-6.192 v -5.328 h -26.208 v -14.328 h -5.4 v 14.328 h -20.232 c 1.44,-5.4 2.592,-12.096 3.24,-18.432 15.48,-0.36 33.624,-1.872 45,-4.68 l -3.096,-4.68 c -10.872,2.88 -30.96,4.248 -47.16,4.68 -0.072,8.28 -1.944,17.496 -2.592,19.8 -0.648,2.52 -1.296,4.248 -2.232,4.608 0.576,1.296 1.512,3.816 1.8,4.968 0.72,-0.648 3.672,-0.936 8.424,-0.936 h 16.848 v 24.768 c 0,1.224 -0.504,1.512 -1.728,1.584 -1.224,0.072 -5.472,0.072 -10.008,-0.072 0.792,1.512 1.584,3.888 1.872,5.328 6.192,0.072 9.864,-0.072 12.168,-1.008 2.232,-0.792 3.096,-2.448 3.096,-5.76 v -24.84 z m -16.632,8.424 c 5.184,5.688 11.376,13.752 14.184,18.648 l 4.968,-2.592 c -2.952,-4.824 -9.36,-12.6 -14.544,-18.216 z" stroke-width="0" stroke-linejoin="miter" stroke-miterlimit="2" fill="#ecd0bb" stroke="#ecd0bb" transform="translate(0 284.1844) translate(440.0666000000001 48.038) scale(1.05) translate(-443.096 59.4)"></path>
        <path id="path13118" style="font-style:normal;font-weight:normal;font-size:72px;line-height:1;font-family:'Brandmark Sans 26';font-variant-ligatures:normal;text-align:center;text-anchor:middle" d="m 566.648,-50.76 v 18.144 H 527.192 V -50.76 Z m -30.096,49.248 c -7.848,0 -9.36,-1.296 -9.36,-6.768 v -19.08 h 39.456 v 4.392 h 5.4 v -33.048 h -50.256 v 47.592 c 0,9.792 3.528,12.168 15.12,12.168 h 27.936 c 11.232,0 13.536,-3.888 14.904,-15.408 -1.656,-0.36 -3.96,-1.296 -5.4,-2.232 -1.008,10.08 -2.232,12.384 -9.576,12.384 z" stroke-width="0" stroke-linejoin="miter" stroke-miterlimit="2" fill="#e9c4a7" stroke="#e9c4a7" transform="translate(0 284.1844) translate(522.6974000000001 51.5912) scale(1.05) translate(-521.792 56.016)"></path>
        <path id="path13120" style="font-style:normal;font-weight:normal;font-size:72px;line-height:1;font-family:'Brandmark Sans 26';font-variant-ligatures:normal;text-align:center;text-anchor:middle" d="m 638.648,-50.76 v 18.144 H 599.192 V -50.76 Z m -30.096,49.248 c -7.848,0 -9.36,-1.296 -9.36,-6.768 v -19.08 h 39.456 v 4.392 h 5.4 v -33.048 h -50.256 v 47.592 c 0,9.792 3.528,12.168 15.12,12.168 h 27.936 c 11.232,0 13.536,-3.888 14.904,-15.408 -1.656,-0.36 -3.96,-1.296 -5.4,-2.232 -1.008,10.08 -2.232,12.384 -9.576,12.384 z" stroke-width="0" stroke-linejoin="miter" stroke-miterlimit="2" fill="#e6b793" stroke="#e6b793" transform="translate(0 284.1844) translate(598.2974000000002 51.5912) scale(1.05) translate(-593.792 56.016)"></path>
        <path id="path13122" style="font-style:normal;font-weight:normal;font-size:72px;line-height:1;font-family:'Brandmark Sans 26';font-variant-ligatures:normal;text-align:center;text-anchor:middle" d="m 684.08,-40.536 c -1.08,9.936 -3.24,18 -6.408,24.48 -3.384,-2.232 -6.84,-4.32 -10.152,-6.12 1.512,-5.616 3.168,-12.024 4.752,-18.36 z m 2.304,-5.184 -1.008,0.144 h -11.88 c 1.152,-4.896 2.304,-9.72 3.24,-14.04 l -5.184,-0.648 c -0.864,4.464 -2.016,9.504 -3.24,14.688 h -8.928 v 5.04 h 7.776 c -2.232,9.072 -4.608,17.928 -6.552,24.12 l 4.608,2.304 0.936,-3.24 c 2.952,1.728 6.048,3.744 8.928,5.76 -3.888,5.976 -8.784,10.152 -14.688,12.744 1.152,1.08 2.52,3.096 3.24,4.392 6.336,-3.168 11.592,-7.632 15.696,-13.968 3.672,2.88 6.768,5.688 8.928,8.136 l 3.168,-4.536 c -2.232,-2.52 -5.544,-5.4 -9.432,-8.208 3.96,-7.992 6.552,-18.432 7.632,-32.04 z m 12.96,38.952 v -40.68 h 17.64 v 40.68 z m -5.04,-45.72 v 56.16 h 5.04 v -5.4 h 17.64 v 4.32 h 5.184 v -55.08 z" stroke-width="0" stroke-linejoin="miter" stroke-miterlimit="2" fill="#e2ab80" stroke="#e2ab80" transform="translate(0 284.1844) translate(667.1690000000001 47.130799999999994) scale(1.05) translate(-659.384 60.264)"></path>
        <path id="path13124" style="font-style:normal;font-weight:normal;font-size:72px;line-height:1;font-family:'Brandmark Sans 26';font-variant-ligatures:normal;text-align:center;text-anchor:middle" d="m 775.448,-51.12 c -0.936,2.232 -2.376,5.184 -3.528,7.2 l 1.8,0.504 h -20.016 l 2.088,-0.576 c -0.504,-1.944 -1.728,-4.824 -3.096,-7.128 z m 19.44,7.704 h -17.856 c 1.296,-2.016 2.736,-4.536 4.104,-7.128 L 778.4,-51.12 h 12.816 v -4.32 H 766.52 v -4.824 h -5.256 v 4.824 h -24.552 v 4.32 h 13.248 l -2.448,0.576 c 1.224,2.16 2.448,5.04 3.024,7.128 h -17.064 v 4.392 h 61.416 z m -13.104,16.272 h -35.136 v -4.248 h 35.136 z m 0,8.136 H 746.648 V -23.4 h 35.136 z m 5.184,-16.416 h -45.432 v 20.448 h 17.424 l -2.736,2.664 c 4.392,1.944 9.504,5.112 11.952,7.416 l 3.312,-3.384 c -2.448,-2.16 -7.128,-4.896 -11.304,-6.696 h 26.784 z M 735.416,3.888 c 5.4,-3.168 8.424,-8.424 10.512,-13.608 l -4.536,-1.656 c -1.728,4.752 -5.112,9.576 -10.08,12.456 z m 23.688,-3.456 c -3.744,0 -4.32,-0.36 -4.32,-2.088 v -9.216 h -5.256 v 9.216 c 0,5.184 1.944,6.48 9.144,6.48 h 13.608 c 5.76,0 7.416,-1.872 7.92,-9.864 -1.296,-0.36 -3.456,-1.008 -4.536,-1.8 -0.36,6.408 -0.792,7.272 -3.888,7.272 z m 20.88,-9.936 c 4.896,3.672 10.296,9.072 12.6,12.888 l 4.32,-2.664 c -2.52,-3.888 -7.92,-9.144 -12.816,-12.744 z" stroke-width="0" stroke-linejoin="miter" stroke-miterlimit="2" fill="#df9e6c" stroke="#df9e6c" transform="translate(0 284.1844) translate(742.6934000000001 47.130799999999994) scale(1.05) translate(-731.312 60.264)"></path>
      </g>
      <image xlink:href="" id="icon" style="display: none;" x="0" y="0"></image>
    </g>
  </g>
</svg>