<svg style="width: 1em;height: 1em;vertical-align: middle;fill: currentColor;overflow: hidden;" viewBox="0 0 1024 1024" version="1.1" xmlns="http://www.w3.org/2000/svg">
    <circle cx="50%" cy="50%" r="50%" fill="#e9b474" />
    <path d="M556.987733 657.408l-76.424533-285.218133-49.629867-185.2416a44.817067 44.817067 0 0 1 18.568534-48.9472L632.1152 17.066667a22.391467 22.391467 0 0 1 34.030933 12.868266l41.5744 155.204267a44.817067 44.817067 0 0 1-18.5344 48.9472l-130.116266 86.1184 123.6992 461.653333-1.9456 0.512c6.212267 77.038933-59.528533 155.136-157.2864 181.316267-107.144533 28.706133-212.1728-15.837867-234.5984-99.498667-22.4256-83.626667 46.2848-174.762667 153.429333-203.434666 39.901867-10.717867 79.496533-11.264 114.619733-3.413334z" fill="#b30e0a"></path>
</svg>
