<svg version="1.0" xmlns="http://www.w3.org/2000/svg" width="512" height="512" viewBox="0 0 512 512" style="" preserveAspectRatio="xMidYMid meet">
<g fill="#d1a975" stroke="#d1a975">
<path d="M 303.500 128.977 C 291.785 132.050 283.284 134.759 259.803 142.903 C 239.558 149.924 235.229 149.768 214.000 141.249 C 205.971 138.027 195.940 135.107 183.333 132.321 C 172.031 129.823 142.085 129.827 133.000 132.327 C 103.010 140.582 80.278 157.670 64.623 183.729 C 56.158 197.819 48.368 216.817 44.025 233.960 C 39.655 251.212 38.912 284.371 42.444 304.500 C 48.743 340.404 64.392 384.866 80.777 413.415 C 103.570 453.131 128.677 476.407 159.622 486.508 C 175.565 491.712 201.691 488.657 229.814 478.300 C 242.609 473.588 247.214 472.917 259.337 474.002 C 266.969 474.684 272.987 476.054 283.500 479.504 C 314.762 489.760 322.297 490.785 335.274 486.545 C 356.157 479.721 366.482 471.809 382.961 450.000 C 407.403 417.653 425.152 386.272 430.047 366.747 C 431.439 361.195 430.784 359.951 424.887 356.942 C 412.781 350.766 397.265 337.125 387.700 324.248 C 377.965 311.142 372.476 298.590 370.085 283.968 C 368.849 276.404 368.414 257.758 369.435 256.104 C 369.818 255.486 374.714 251.973 380.315 248.299 C 387.146 243.819 394.616 237.563 403.000 229.303 C 409.875 222.529 416.400 216.381 417.500 215.641 C 418.600 214.901 422.875 213.512 427.000 212.554 C 438.423 209.901 444.336 207.747 456.500 201.808 C 468.266 196.063 473.846 187.789 472.667 177.835 C 471.592 168.763 464.464 161.092 458.500 162.589 C 454.658 163.554 454.227 167.277 457.425 171.891 C 458.886 174.000 460.343 177.474 460.662 179.612 L 461.244 183.500 457.568 179.812 C 453.394 175.624 446.673 172.681 442.395 173.170 C 439.950 173.449 439.452 174.000 439.189 176.716 C 438.920 179.497 439.424 180.309 442.907 182.716 C 447.766 186.074 448.690 188.299 446.568 191.536 C 444.118 195.275 433.075 199.992 424.000 201.174 L 421.500 201.500 421.500 189.500 C 421.500 177.723 421.436 177.382 418.061 171.157 C 416.169 167.668 413.244 163.773 411.561 162.501 C 407.307 159.289 370.760 137.407 364.025 134.040 C 346.922 125.491 324.072 123.580 303.500 128.977 M 348.500 149.729 C 358.473 153.384 359.202 153.804 371.732 163.122 C 381.003 170.017 389.441 174.997 394.301 176.441 C 395.292 176.736 397.016 179.043 398.133 181.569 C 400.113 186.043 400.121 186.359 398.466 193.831 C 396.082 204.595 394.061 207.994 384.180 217.863 C 372.904 229.127 370.120 231.168 360.333 235.357 C 335.389 246.034 304.303 250.414 279.217 246.787 C 271.458 245.666 270.558 245.722 267.189 247.537 C 259.939 251.445 260.064 257.404 267.494 261.996 L 271.037 264.186 270.409 270.843 C 266.345 313.928 239.252 354.067 204.152 369.003 C 188.749 375.558 171.208 378.333 154.500 376.858 C 124.217 374.185 100.775 361.096 82.088 336.428 C 76.392 328.909 70.836 318.178 68.412 310.016 C 59.808 281.044 64.220 232.616 77.991 204.860 C 82.133 196.512 93.487 181.808 104.324 170.757 C 112.048 162.881 114.938 160.677 122.123 157.183 C 137.114 149.894 141.578 148.855 158.000 148.833 C 176.877 148.808 180.142 149.608 218.071 163.554 C 220.034 164.276 224.219 166.007 227.370 167.400 L 233.099 169.934 227.467 176.717 C 217.809 188.351 206.031 214.457 198.465 241.000 C 190.652 268.407 189.190 272.061 183.400 278.656 C 176.758 286.222 173.578 288.077 166.996 288.227 C 157.886 288.435 151.000 281.369 151.000 271.813 C 151.000 262.686 151.969 259.934 156.918 255.007 C 161.860 250.086 165.403 248.643 176.340 247.094 C 184.254 245.973 185.719 245.017 186.584 240.406 C 187.941 233.172 185.246 230.205 174.817 227.452 C 164.850 224.822 149.497 230.466 139.544 240.419 C 132.480 247.482 128.236 254.503 126.956 261.243 C 125.700 267.850 127.518 281.106 130.563 287.541 C 136.115 299.277 149.314 308.203 163.018 309.487 C 182.469 311.310 197.646 302.881 205.999 285.617 C 209.863 277.631 219.086 253.520 225.124 235.622 C 229.928 221.379 234.678 209.845 240.972 197.138 C 246.520 185.937 247.231 185.004 257.634 175.283 C 263.610 169.699 269.625 164.262 271.000 163.202 C 276.132 159.246 288.322 154.010 303.000 149.456 C 307.675 148.005 311.950 146.641 312.500 146.425 C 313.050 146.209 319.575 146.204 327.000 146.414 C 338.884 146.751 341.457 147.148 348.500 149.729 M 344.451 262.845 C 344.773 263.860 344.580 271.622 344.023 280.095 C 341.988 311.021 334.372 340.003 321.335 366.429 C 314.285 380.720 305.378 392.210 284.953 413.360 C 270.014 428.830 262.638 434.705 244.570 445.526 C 221.081 459.593 209.099 463.868 186.945 466.087 C 173.015 467.482 162.464 466.278 154.854 462.424 C 148.670 459.293 136.897 449.721 129.563 441.862 C 126.297 438.363 120.847 432.575 117.452 429.000 C 114.056 425.425 108.953 418.935 106.111 414.578 C 100.377 405.788 83.698 373.380 84.188 371.982 C 84.360 371.492 88.100 373.357 92.500 376.125 C 108.121 385.951 123.337 392.667 137.483 395.979 C 146.544 398.101 164.936 399.067 177.025 398.056 C 201.318 396.025 216.889 389.868 238.000 373.944 C 248.554 365.983 254.841 359.440 262.693 348.245 C 273.709 332.539 278.841 323.667 283.949 311.500 C 287.672 302.632 290.599 291.303 292.671 277.750 L 294.466 266.000 304.983 265.967 C 316.355 265.932 334.966 263.855 339.000 262.171 C 342.660 260.642 343.796 260.783 344.451 262.845 M 367.597 334.250 C 379.206 348.700 384.601 354.440 393.467 361.779 C 398.434 365.890 403.061 369.470 403.749 369.734 C 406.054 370.618 405.043 373.449 397.395 387.514 C 389.175 402.633 376.337 422.689 366.690 435.484 C 348.981 458.970 330.564 470.051 315.743 466.135 C 290.992 459.596 273.000 454.279 273.000 453.503 C 273.000 453.347 277.838 449.174 283.750 444.229 C 305.133 426.345 317.874 412.095 332.278 389.956 C 338.053 381.078 347.297 363.328 351.002 354.000 C 352.204 350.975 353.635 347.378 354.183 346.006 C 354.731 344.634 356.254 340.220 357.567 336.197 C 359.887 329.089 360.769 327.000 361.446 327.000 C 361.626 327.000 364.394 330.263 367.597 334.250 "/></g>
<g fill="#d1a975" stroke="#d1a975">
<path d="M 310.630 14.459 C 295.708 18.947 274.490 30.535 263.529 40.183 C 249.754 52.308 236.443 77.677 233.978 96.500 C 232.790 105.578 232.770 123.089 233.947 124.948 C 235.108 126.784 246.418 127.591 250.250 126.111 C 252.523 125.234 253.000 124.443 253.000 121.555 C 253.000 116.648 255.780 97.761 257.645 90.000 C 261.672 73.238 274.996 54.189 289.656 44.234 C 297.011 39.239 302.239 37.000 306.547 37.000 L 309.849 37.000 305.999 46.750 C 301.512 58.114 299.626 61.849 295.269 68.000 C 289.118 76.683 273.949 91.204 265.773 96.235 C 259.618 100.022 257.645 103.475 259.554 107.119 C 262.319 112.395 269.956 114.684 275.316 111.842 C 279.635 109.551 292.669 99.087 301.332 90.956 C 315.394 77.757 324.158 63.185 327.943 46.709 C 330.154 37.083 331.407 19.792 330.205 15.500 C 329.414 12.675 329.047 12.488 323.932 12.296 C 320.561 12.169 315.513 12.990 310.630 14.459 "/></g>
<g fill="#d1a975" stroke="#d1a975">
<path d="M 324.030 162.090 C 313.346 166.453 308.262 177.740 312.903 186.790 C 316.573 193.946 321.636 197.000 329.831 197.000 C 340.156 197.000 345.500 190.630 345.500 178.323 C 345.500 172.640 345.072 170.573 343.443 168.392 C 339.610 163.258 329.336 159.922 324.030 162.090 "/></g>
</svg>
