<svg version="1.0" xmlns="http://www.w3.org/2000/svg" width="192" height="192" viewBox="0 0 192 192" style="" preserveAspectRatio="xMidYMid meet">
<g fill="#d1a975" stroke="#d1a975">
<path d="M 105.500 52.092 C 98.900 54.277 92.089 56.096 90.365 56.133 C 88.641 56.170 83.691 54.922 79.365 53.360 C 72.454 50.865 70.106 50.519 60.000 50.510 C 49.204 50.501 48.135 50.684 42.535 53.500 C 26.581 61.524 16.054 81.049 16.015 102.685 C 15.983 120.448 23.963 145.060 35.282 162.107 C 40.155 169.446 48.326 177.094 55.083 180.639 C 62.456 184.508 72.923 184.511 84.271 180.646 C 94.172 177.275 97.551 177.322 109.500 181.000 C 121.122 184.577 121.354 184.588 128.653 181.857 C 137.701 178.472 148.717 165.637 157.363 148.408 C 163.018 137.142 163.011 137.029 156.481 132.532 C 145.613 125.047 139.915 115.615 139.218 103.960 L 138.767 96.420 143.134 93.551 C 145.535 91.973 149.575 88.554 152.111 85.952 C 155.658 82.314 158.082 80.830 162.611 79.522 C 174.548 76.073 179.290 71.524 177.060 65.658 C 175.971 62.793 173.785 61.397 172.059 62.464 C 171.386 62.879 171.593 63.975 172.647 65.583 C 174.663 68.661 173.678 69.924 171.089 67.580 C 170.031 66.623 168.115 65.989 166.832 66.171 L 164.500 66.503 166.750 68.474 C 167.988 69.558 169.000 71.042 169.000 71.773 C 169.000 73.273 163.163 76.000 159.953 76.000 C 158.150 76.000 157.933 75.582 158.469 73.141 C 158.843 71.439 158.453 68.674 157.506 66.306 C 156.135 62.880 154.499 61.483 145.707 56.233 C 129.359 46.469 124.110 45.928 105.500 52.092 M 131.739 56.812 C 134.358 57.808 138.672 60.283 141.327 62.312 C 143.981 64.340 146.778 66.000 147.541 66.000 C 149.983 66.000 151.107 69.567 150.091 74.089 C 147.445 85.867 128.179 95.052 108.896 93.730 C 102.784 93.311 100.820 93.512 99.874 94.652 C 98.903 95.822 99.065 96.509 100.695 98.139 C 102.587 100.031 102.644 100.600 101.531 106.521 C 98.899 120.529 89.526 133.520 78.236 138.812 C 73.149 141.196 71.309 141.500 61.979 141.500 C 52.102 141.500 51.049 141.298 44.769 138.207 C 36.721 134.245 29.934 126.987 26.811 119.000 C 22.906 109.016 24.232 88.742 29.520 77.599 C 32.219 71.912 41.112 62.257 46.206 59.484 C 55.088 54.650 65.155 55.037 80.000 60.782 C 88.378 64.025 88.824 64.482 86.295 67.237 C 82.953 70.877 78.501 80.700 74.992 92.176 C 71.391 103.956 67.962 109.000 63.556 109.000 C 57.525 109.000 54.692 100.517 59.283 96.204 C 60.539 95.024 63.351 93.690 65.533 93.240 C 68.827 92.560 69.553 91.971 69.811 89.767 C 70.084 87.441 69.691 87.033 66.626 86.458 C 56.864 84.626 47.030 94.045 48.496 103.821 C 50.262 115.600 66.182 120.835 74.175 112.266 C 77.592 108.603 78.150 107.426 83.591 92.376 C 86.152 85.294 89.267 77.474 90.515 74.998 C 93.767 68.541 102.427 60.726 109.025 58.293 C 112.036 57.183 115.175 56.024 116.000 55.716 C 119.198 54.526 127.195 55.082 131.739 56.812 M 126.497 124.473 C 122.511 138.139 118.825 144.163 107.500 155.526 C 96.563 166.500 86.442 172.764 76.201 174.896 C 63.374 177.568 57.609 175.532 47.320 164.699 C 41.091 158.141 30.945 141.722 32.290 140.377 C 32.549 140.118 35.630 141.484 39.138 143.412 C 61.492 155.699 85.795 150.138 99.858 129.517 C 105.817 120.779 108.870 113.620 109.791 106.223 L 110.504 100.500 119.342 99.827 C 124.203 99.456 128.477 98.871 128.840 98.525 C 129.203 98.180 129.413 101.858 129.307 106.699 C 129.174 112.765 128.301 118.288 126.497 124.473 M 144.981 133.024 C 146.366 134.412 148.761 136.520 150.303 137.709 L 153.106 139.871 150.922 144.186 C 147.892 150.168 140.417 161.650 136.195 166.805 C 132.225 171.652 125.502 176.000 121.976 176.000 C 119.815 176.000 105.414 172.324 103.798 171.360 C 103.411 171.129 107.263 166.792 112.357 161.720 C 123.872 150.256 128.173 143.343 135.157 125.074 L 136.085 122.647 139.273 126.574 C 141.026 128.733 143.595 131.636 144.981 133.024 "/></g>
<g fill="#d1a975" stroke="#d1a975">
<path d="M 118.383 5.954 C 114.106 6.968 106.976 10.510 102.093 14.048 C 94.067 19.861 87.392 34.126 88.190 43.758 C 88.473 47.173 88.784 47.527 91.750 47.813 C 93.538 47.986 95.009 47.761 95.020 47.313 C 95.031 46.866 95.488 43.397 96.036 39.605 C 97.251 31.201 100.936 24.107 106.741 18.997 C 110.715 15.499 115.577 13.244 116.708 14.375 C 116.968 14.635 115.939 17.615 114.421 20.998 C 112.356 25.599 109.900 28.755 104.670 33.528 C 98.695 38.982 97.865 40.133 98.962 41.454 C 101.005 43.916 102.809 43.324 109.508 37.994 C 119.552 30.002 124.481 20.562 123.824 10.578 C 123.471 5.220 123.038 4.851 118.383 5.954 "/></g>
<g fill="#d1a975" stroke="#d1a975">
<path d="M 121.500 62.203 C 118.786 63.731 118.033 65.021 118.015 68.179 C 117.995 71.809 120.449 74.000 124.536 74.000 C 128.365 74.000 130.000 71.962 130.000 67.188 C 130.000 62.747 125.363 60.028 121.500 62.203 "/></g>
</svg>
